{
  "accessors": [
    {
      "bufferView": 2,
      "componentType": 5126,
      "count": 423,
      "max": [
        17.085588455200195,
        41.348018646240234,
        30.57033920288086
      ],
      "min": [
        -18.30632781982422,
        -32.30808639526367,
        -40.38913345336914
      ],
      "type": "VEC3"
    },
    {
      "bufferView": 2,
      "byteOffset": 5076,
      "componentType": 5126,
      "count": 423,
      "max": [
        0.9850432872772217,
        0.9996229410171509,
        0.9991776347160339
      ],
      "min": [
        -0.9841598868370056,
        -0.9997594356536865,
        -0.9991469383239746
      ],
      "type": "VEC3"
    },
    {
      "bufferView": 3,
      "componentType": 5126,
      "count": 423,
      "max": [
        0.9872939586639404,
        0.9999707341194153,
        0.9997597336769104,
        1.0
      ],
      "min": [
        -0.9929998517036438,
        -0.9988453388214111,
        -0.999481201171875,
        1.0
      ],
      "type": "VEC4"
    },
    {
      "bufferView": 1,
      "componentType": 5126,
      "count": 423,
      "max": [
        0.9992850422859192,
        0.9499632120132446
      ],
      "min": [
        0.15983247756958008,
        0.0007149516022764146
      ],
      "type": "VEC2"
    },
    {
      "bufferView": 0,
      "componentType": 5125,
      "count": 1230,
      "type": "SCALAR"
    },
    {
      "bufferView": 2,
      "byteOffset": 10152,
      "componentType": 5126,
      "count": 893,
      "max": [
        15.9900484085083,
        3.4693360328674316,
        22.34684181213379
      ],
      "min": [
        -15.916633605957031,
        -2.589982748031616,
        -27.01947784423828
      ],
      "type": "VEC3"
    },
    {
      "bufferView": 2,
      "byteOffset": 20868,
      "componentType": 5126,
      "count": 893,
      "max": [
        0.9999624490737915,
        0.9999501705169678,
        0.9999307990074158
      ],
      "min": [
        -0.9999532103538513,
        -0.9999995231628418,
        -0.9889737367630005
      ],
      "type": "VEC3"
    },
    {
      "bufferView": 3,
      "byteOffset": 6768,
      "componentType": 5126,
      "count": 893,
      "max": [
        0.613032341003418,
        0.9998975992202759,
        0.9167280197143555,
        1.0
      ],
      "min": [
        -1.0,
        -0.9998967051506042,
        -0.9485417008399963,
        1.0
      ],
      "type": "VEC4"
    },
    {
      "bufferView": 1,
      "byteOffset": 3384,
      "componentType": 5126,
      "count": 893,
      "max": [
        0.5539414286613464,
        0.6148189306259155
      ],
      "min": [
        0.0007149577140808105,
        0.0007149516022764146
      ],
      "type": "VEC2"
    },
    {
      "bufferView": 0,
      "byteOffset": 4920,
      "componentType": 5125,
      "count": 2886,
      "type": "SCALAR"
    },
    {
      "bufferView": 2,
      "byteOffset": 31584,
      "componentType": 5126,
      "count": 706,
      "max": [
        12.08665943145752,
        52.233028411865234,
        48.7314567565918
      ],
      "min": [
        -8.336949348449707,
        -42.49122619628906,
        -21.62706756591797
      ],
      "type": "VEC3"
    },
    {
      "bufferView": 2,
      "byteOffset": 40056,
      "componentType": 5126,
      "count": 706,
      "max": [
        1.0,
        0.9999837875366211,
        0.999847412109375
      ],
      "min": [
        -1.0,
        -0.9998535513877869,
        -0.9991871118545532
      ],
      "type": "VEC3"
    },
    {
      "bufferView": 3,
      "byteOffset": 21056,
      "componentType": 5126,
      "count": 706,
      "max": [
        1.0,
        0.995576798915863,
        0.98244708776474,
        1.0
      ],
      "min": [
        -1.0,
        -0.9996148943901062,
        -0.9999784231185913,
        1.0
      ],
      "type": "VEC4"
    },
    {
      "bufferView": 1,
      "byteOffset": 10528,
      "componentType": 5126,
      "count": 706,
      "max": [
        0.9942198991775513,
        0.9912647604942322
      ],
      "min": [
        0.0007149577140808105,
        0.30229833722114563
      ],
      "type": "VEC2"
    },
    {
      "bufferView": 0,
      "byteOffset": 16464,
      "componentType": 5125,
      "count": 2376,
      "type": "SCALAR"
    },
    {
      "bufferView": 2,
      "byteOffset": 48528,
      "componentType": 5126,
      "count": 352,
      "max": [
        2.831089496612549,
        7.232260704040527,
        3.798651695251465
      ],
      "min": [
        -4.921197891235352,
        -5.341667175292969,
        -6.045007705688477
      ],
      "type": "VEC3"
    },
    {
      "bufferView": 2,
      "byteOffset": 52752,
      "componentType": 5126,
      "count": 352,
      "max": [
        1.0,
        0.9992688894271851,
        0.9992690682411194
      ],
      "min": [
        -1.0,
        -0.9992691278457642,
        -0.9992690682411194
      ],
      "type": "VEC3"
    },
    {
      "bufferView": 3,
      "byteOffset": 32352,
      "componentType": 5126,
      "count": 352,
      "max": [
        1.0,
        0.9986157417297363,
        0.39484965801239014,
        1.0
      ],
      "min": [
        -1.0,
        -0.9187513589859009,
        -0.897849440574646,
        1.0
      ],
      "type": "VEC4"
    },
    {
      "bufferView": 1,
      "byteOffset": 16176,
      "componentType": 5126,
      "count": 352,
      "max": [
        0.8876675367355347,
        0.9705430269241333
      ],
      "min": [
        0.2728045582771301,
        0.0007149516022764146
      ],
      "type": "VEC2"
    },
    {
      "bufferView": 0,
      "byteOffset": 25968,
      "componentType": 5125,
      "count": 1278,
      "type": "SCALAR"
    },
    {
      "bufferView": 2,
      "byteOffset": 56976,
      "componentType": 5126,
      "count": 898,
      "max": [
        3.4702539443969727,
        16.567874908447266,
        83.03823852539063
      ],
      "min": [
        -3.471255302429199,
        -18.701862335205078,
        -57.357215881347656
      ],
      "type": "VEC3"
    },
    {
      "bufferView": 2,
      "byteOffset": 67752,
      "componentType": 5126,
      "count": 898,
      "max": [
        1.0,
        0.9995720386505127,
        1.0
      ],
      "min": [
        -1.0,
        -0.9959196448326111,
        -1.0
      ],
      "type": "VEC3"
    },
    {
      "bufferView": 3,
      "byteOffset": 37984,
      "componentType": 5126,
      "count": 898,
      "max": [
        1.0,
        1.0,
        0.9995816946029663,
        1.0
      ],
      "min": [
        -1.0,
        -1.0,
        -0.9995813965797424,
        1.0
      ],
      "type": "VEC4"
    },
    {
      "bufferView": 1,
      "byteOffset": 18992,
      "componentType": 5126,
      "count": 898,
      "max": [
        0.9612969756126404,
        0.9455676078796387
      ],
      "min": [
        0.16340193152427673,
        0.3109913468360901
      ],
      "type": "VEC2"
    },
    {
      "bufferView": 0,
      "byteOffset": 31080,
      "componentType": 5125,
      "count": 3534,
      "type": "SCALAR"
    },
    {
      "bufferView": 2,
      "byteOffset": 78528,
      "componentType": 5126,
      "count": 152,
      "max": [
        4.664766788482666,
        25.911354064941406,
        3.4241795539855957
      ],
      "min": [
        -4.664790630340576,
        -3.5734593868255615,
        -13.608657836914063
      ],
      "type": "VEC3"
    },
    {
      "bufferView": 2,
      "byteOffset": 80352,
      "componentType": 5126,
      "count": 152,
      "max": [
        0.9609276056289673,
        0.9978379011154175,
        0.9707753658294678
      ],
      "min": [
        -0.9609250426292419,
        -0.4189320206642151,
        -0.9773563146591187
      ],
      "type": "VEC3"
    },
    {
      "bufferView": 3,
      "byteOffset": 52352,
      "componentType": 5126,
      "count": 152,
      "max": [
        0.9921496510505676,
        0.9979187846183777,
        0.9606939554214478,
        1.0
      ],
      "min": [
        -0.9898839592933655,
        -0.9904096126556396,
        -0.9960379600524902,
        -1.0
      ],
      "type": "VEC4"
    },
    {
      "bufferView": 1,
      "byteOffset": 26176,
      "componentType": 5126,
      "count": 152,
      "max": [
        0.8066375255584717,
        0.9110594391822815
      ],
      "min": [
        0.3353869318962097,
        0.6162487864494324
      ],
      "type": "VEC2"
    },
    {
      "bufferView": 0,
      "byteOffset": 45216,
      "componentType": 5125,
      "count": 576,
      "type": "SCALAR"
    },
    {
      "bufferView": 2,
      "byteOffset": 82176,
      "componentType": 5126,
      "count": 603,
      "max": [
        44.695892333984375,
        2.2576358318328857,
        4.703805446624756
      ],
      "min": [
        -44.695892333984375,
        -2.6354525089263916,
        -4.701783657073975
      ],
      "type": "VEC3"
    },
    {
      "bufferView": 2,
      "byteOffset": 89412,
      "componentType": 5126,
      "count": 603,
      "max": [
        1.0,
        1.0,
        1.0
      ],
      "min": [
        -1.0,
        -0.9999955296516418,
        -1.0
      ],
      "type": "VEC3"
    },
    {
      "bufferView": 3,
      "byteOffset": 54784,
      "componentType": 5126,
      "count": 603,
      "max": [
        0.9980693459510803,
        1.0,
        0.9999997019767761,
        1.0
      ],
      "min": [
        -0.9980693459510803,
        -1.0,
        -1.0,
        1.0
      ],
      "type": "VEC4"
    },
    {
      "bufferView": 1,
      "byteOffset": 27392,
      "componentType": 5126,
      "count": 603,
      "max": [
        0.6385947465896606,
        0.9384835362434387
      ],
      "min": [
        0.07268869876861572,
        0.0007150173187255859
      ],
      "type": "VEC2"
    },
    {
      "bufferView": 0,
      "byteOffset": 47520,
      "componentType": 5125,
      "count": 2532,
      "type": "SCALAR"
    },
    {
      "bufferView": 2,
      "byteOffset": 96648,
      "componentType": 5126,
      "count": 622,
      "max": [
        15.89803695678711,
        1.6945600509643555,
        3.5310983657836914
      ],
      "min": [
        -15.89803695678711,
        -1.9787371158599854,
        -3.529798984527588
      ],
      "type": "VEC3"
    },
    {
      "bufferView": 2,
      "byteOffset": 104112,
      "componentType": 5126,
      "count": 622,
      "max": [
        1.0,
        1.0,
        1.0
      ],
      "min": [
        -1.0,
        -1.0,
        -1.0
      ],
      "type": "VEC3"
    },
    {
      "bufferView": 3,
      "byteOffset": 64432,
      "componentType": 5126,
      "count": 622,
      "max": [
        0.9999976754188538,
        1.0,
        1.0,
        1.0
      ],
      "min": [
        -0.999997615814209,
        -1.0,
        -1.0,
        1.0
      ],
      "type": "VEC4"
    },
    {
      "bufferView": 1,
      "byteOffset": 32216,
      "componentType": 5126,
      "count": 622,
      "max": [
        0.9583401083946228,
        0.9735660552978516
      ],
      "min": [
        0.07268872857093811,
        0.0007149516022764146
      ],
      "type": "VEC2"
    },
    {
      "bufferView": 0,
      "byteOffset": 57648,
      "componentType": 5125,
      "count": 2466,
      "type": "SCALAR"
    }
  ],
  "asset": {
    "extras": {
      "author": "Sousinho (https://sketchfab.com/sousinho)",
      "license": "CC-BY-4.0 (http://creativecommons.org/licenses/by/4.0/)",
      "source": "https://sketchfab.com/3d-models/incline-bench-bdc274649c234c188d2d4f4c732acb1c",
      "title": "Incline Bench"
    },
    "generator": "Sketchfab-12.68.0",
    "version": "2.0"
  },
  "bufferViews": [
    {
      "buffer": 0,
      "byteLength": 67512,
      "name": "floatBufferViews",
      "target": 34963
    },
    {
      "buffer": 0,
      "byteLength": 37192,
      "byteOffset": 67512,
      "byteStride": 8,
      "name": "floatBufferViews",
      "target": 34962
    },
    {
      "buffer": 0,
      "byteLength": 111576,
      "byteOffset": 104704,
      "byteStride": 12,
      "name": "floatBufferViews",
      "target": 34962
    },
    {
      "buffer": 0,
      "byteLength": 74384,
      "byteOffset": 216280,
      "byteStride": 16,
      "name": "floatBufferViews",
      "target": 34962
    }
  ],
  "buffers": [
    {
      "byteLength": 290664,
      "uri": "scene.bin"
    }
  ],
  "images": [
    {
      "uri": "textures/incline_bench_baseColor.png"
    },
    {
      "uri": "textures/incline_bench_metallicRoughness.png"
    },
    {
      "uri": "textures/incline_bench_emissive.png"
    },
    {
      "uri": "textures/incline_bench_normal.png"
    }
  ],
  "materials": [
    {
      "doubleSided": true,
      "emissiveFactor": [
        1.0,
        1.0,
        1.0
      ],
      "emissiveTexture": {
        "index": 2
      },
      "name": "incline_bench",
      "normalTexture": {
        "index": 3
      },
      "pbrMetallicRoughness": {
        "baseColorTexture": {
          "index": 0
        },
        "metallicRoughnessTexture": {
          "index": 1
        }
      }
    }
  ],
  "meshes": [
    {
      "name": "Cube.031_incline bench_0",
      "primitives": [
        {
          "attributes": {
            "NORMAL": 1,
            "POSITION": 0,
            "TANGENT": 2,
            "TEXCOORD_0": 3
          },
          "indices": 4,
          "material": 0,
          "mode": 4
        }
      ]
    },
    {
      "name": "Cube.030_incline bench_0",
      "primitives": [
        {
          "attributes": {
            "NORMAL": 6,
            "POSITION": 5,
            "TANGENT": 7,
            "TEXCOORD_0": 8
          },
          "indices": 9,
          "material": 0,
          "mode": 4
        }
      ]
    },
    {
      "name": "Cube.029_incline bench_0",
      "primitives": [
        {
          "attributes": {
            "NORMAL": 11,
            "POSITION": 10,
            "TANGENT": 12,
            "TEXCOORD_0": 13
          },
          "indices": 14,
          "material": 0,
          "mode": 4
        }
      ]
    },
    {
      "name": "Cube.028_incline bench_0",
      "primitives": [
        {
          "attributes": {
            "NORMAL": 16,
            "POSITION": 15,
            "TANGENT": 17,
            "TEXCOORD_0": 18
          },
          "indices": 19,
          "material": 0,
          "mode": 4
        }
      ]
    },
    {
      "name": "frame_low.002_incline bench_0",
      "primitives": [
        {
          "attributes": {
            "NORMAL": 21,
            "POSITION": 20,
            "TANGENT": 22,
            "TEXCOORD_0": 23
          },
          "indices": 24,
          "material": 0,
          "mode": 4
        }
      ]
    },
    {
      "name": "front leg_low.002_incline bench_0",
      "primitives": [
        {
          "attributes": {
            "NORMAL": 26,
            "POSITION": 25,
            "TANGENT": 27,
            "TEXCOORD_0": 28
          },
          "indices": 29,
          "material": 0,
          "mode": 4
        }
      ]
    },
    {
      "name": "front foot_low.005_incline bench_0",
      "primitives": [
        {
          "attributes": {
            "NORMAL": 31,
            "POSITION": 30,
            "TANGENT": 32,
            "TEXCOORD_0": 33
          },
          "indices": 34,
          "material": 0,
          "mode": 4
        }
      ]
    },
    {
      "name": "front foot_low.004_incline bench_0",
      "primitives": [
        {
          "attributes": {
            "NORMAL": 36,
            "POSITION": 35,
            "TANGENT": 37,
            "TEXCOORD_0": 38
          },
          "indices": 39,
          "material": 0,
          "mode": 4
        }
      ]
    }
  ],
  "nodes": [
    {
      "children": [
        1
      ],
      "matrix": [
        1.0,
        0.0,
        0.0,
        0.0,
        0.0,
        2.220446049250313e-16,
        -1.0,
        0.0,
        0.0,
        1.0,
        2.220446049250313e-16,
        0.0,
        0.0,
        0.0,
        0.0,
        1.0
      ],
      "name": "Sketchfab_model"
    },
    {
      "children": [
        2
      ],
      "matrix": [
        0.009999999776482582,
        0.0,
        0.0,
        0.0,
        0.0,
        0.0,
        0.009999999776482582,
        0.0,
        0.0,
        -0.009999999776482582,
        0.0,
        0.0,
        0.0,
        0.0,
        0.0,
        1.0
      ],
      "name": "incline bench.fbx"
    },
    {
      "children": [
        3,
        5,
        7,
        9,
        11,
        13,
        15,
        17
      ],
      "name": "RootNode"
    },
    {
      "children": [
        4
      ],
      "matrix": [
        1.0,
        0.0,
        0.0,
        0.0,
        0.0,
        1.0,
        0.0,
        0.0,
        0.0,
        0.0,
        1.0,
        0.0,
        -22.575885772705078,
        33.529579162597656,
        -59.069454193115234,
        1.0
      ],
      "name": "Cube.031"
    },
    {
      "mesh": 0,
      "name": "Cube.031_incline bench_0"
    },
    {
      "children": [
        6
      ],
      "matrix": [
        1.0,
        0.0,
        0.0,
        0.0,
        0.0,
        1.0,
        0.0,
        0.0,
        0.0,
        0.0,
        1.0,
        0.0,
        -23.02398109436035,
        -1.4547675848007202,
        3.677656412124634,
        1.0
      ],
      "name": "Cube.030"
    },
    {
      "mesh": 1,
      "name": "Cube.030_incline bench_0"
    },
    {
      "children": [
        8
      ],
      "matrix": [
        1.0,
        0.0,
        0.0,
        0.0,
        0.0,
        1.0,
        0.0,
        0.0,
        0.0,
        0.0,
        1.0,
        0.0,
        -22.499841690063477,
        13.875764846801758,
        -75.54010009765625,
        1.0
      ],
      "name": "Cube.029"
    },
    {
      "mesh": 2,
      "name": "Cube.029_incline bench_0"
    },
    {
      "children": [
        10
      ],
      "matrix": [
        1.0,
        0.0,
        0.0,
        0.0,
        0.0,
        1.0,
        0.0,
        0.0,
        0.0,
        0.0,
        1.0,
        0.0,
        -21.84225845336914,
        -14.506515502929688,
        24.443378448486328,
        1.0
      ],
      "name": "Cube.028"
    },
    {
      "mesh": 3,
      "name": "Cube.028_incline bench_0"
    },
    {
      "children": [
        12
      ],
      "matrix": [
        1.0,
        0.0,
        0.0,
        0.0,
        0.0,
        1.0,
        0.0,
        0.0,
        0.0,
        0.0,
        1.0,
        0.0,
        -23.206562042236328,
        -20.469039916992188,
        -57.917964935302734,
        1.0
      ],
      "name": "frame_low.002"
    },
    {
      "mesh": 4,
      "name": "frame_low.002_incline bench_0"
    },
    {
      "children": [
        14
      ],
      "matrix": [
        1.0,
        0.0,
        0.0,
        0.0,
        0.0,
        1.0,
        0.0,
        0.0,
        0.0,
        0.0,
        1.0,
        0.0,
        -23.211091995239258,
        -32.53608322143555,
        32.59425354003906,
        1.0
      ],
      "name": "front leg_low.002"
    },
    {
      "mesh": 5,
      "name": "front leg_low.002_incline bench_0"
    },
    {
      "children": [
        16
      ],
      "matrix": [
        1.0,
        0.0,
        0.0,
        0.0,
        0.0,
        1.0,
        0.0,
        0.0,
        0.0,
        0.0,
        1.0,
        0.0,
        -23.21791648864746,
        -37.307857513427734,
        -118.0416488647461,
        1.0
      ],
      "name": "front foot_low.005"
    },
    {
      "mesh": 6,
      "name": "front foot_low.005_incline bench_0"
    },
    {
      "children": [
        18
      ],
      "matrix": [
        1.0,
        0.0,
        0.0,
        0.0,
        0.0,
        1.0,
        0.0,
        0.0,
        0.0,
        0.0,
        1.0,
        0.0,
        -23.21841812133789,
        -37.425933837890625,
        34.42058181762695,
        1.0
      ],
      "name": "front foot_low.004"
    },
    {
      "mesh": 7,
      "name": "front foot_low.004_incline bench_0"
    }
  ],
  "samplers": [
    {
      "magFilter": 9729,
      "minFilter": 9987,
      "wrapS": 10497,
      "wrapT": 10497
    }
  ],
  "scene": 0,
  "scenes": [
    {
      "name": "Sketchfab_Scene",
      "nodes": [
        0
      ]
    }
  ],
  "textures": [
    {
      "sampler": 0,
      "source": 0
    },
    {
      "sampler": 0,
      "source": 1
    },
    {
      "sampler": 0,
      "source": 2
    },
    {
      "sampler": 0,
      "source": 3
    }
  ]
}
